<svg xmlns="http://www.w3.org/2000/svg" class="icon icon-tabler icon-tabler-toilet-paper" width="24" height="24" viewBox="0 0 24 24" stroke-width="2" stroke="currentColor" fill="none" stroke-linecap="round" stroke-linejoin="round">
  <path stroke="none" d="M0 0h24v24H0z" fill="none"/>
  <path d="M6 10v-4a6 6 0 1 1 12 0v4"/>
  <path d="M6 10c0 1.105 .895 2 2 2h8c1.105 0 2 -.895 2 -2"/>
  <path d="M6 10c0 1.105 .895 2 2 2h8c1.105 0 2 -.895 2 -2v-4a6 6 0 0 0 -12 0"/>
  <path d="M6 10v6a2 2 0 0 0 2 2h8a2 2 0 0 0 2 -2v-6"/>
  <path d="M6 10h12"/>
</svg>
