<?xml version="1.0" encoding="UTF-8"?>
<svg version="1.1" xmlns="http://www.w3.org/2000/svg" width="1920" height="350">
<path d="M0 0 C18.15 0 36.3 0 55 0 C55.33 29.7 55.66 59.4 56 90 C61.445 86.535 61.445 86.535 67 83 C89.96053466 70.43519129 118.7149037 68.13376971 143.79003906 75.31542969 C155.83735219 79.04727525 166.06682093 84.21380081 176 92 C176.80824219 92.62519531 177.61648438 93.25039062 178.44921875 93.89453125 C198.00212988 110.10331447 208.33995776 135.27062257 210.75390625 160.08203125 C212.5340385 188.42286689 206.73961867 216.80127609 188 239 C172.02984222 256.9476538 149.80781416 269.06309398 125.5703125 270.90625 C124.29800781 270.95265625 124.29800781 270.95265625 123 271 C121.04707031 271.07734375 121.04707031 271.07734375 119.0546875 271.15625 C94.17062461 271.81346196 70.15031754 265.39098127 51.14453125 248.72265625 C49.19858286 246.79124919 49.19858286 246.79124919 47 247 C46.85377197 247.54003662 46.70754395 248.08007324 46.55688477 248.63647461 C45.89556445 251.07110922 45.22910312 253.50430679 44.5625 255.9375 C44.33240234 256.78763672 44.10230469 257.63777344 43.86523438 258.51367188 C43.53168945 259.72700195 43.53168945 259.72700195 43.19140625 260.96484375 C42.98717041 261.7137085 42.78293457 262.46257324 42.57250977 263.23413086 C42 265 42 265 41 266 C27.47 266 13.94 266 0 266 C0 178.22 0 90.44 0 0 Z M67 134 C55.67589736 146.75702951 52.03655667 161.27112041 53 178 C55.02435233 192.07482759 60.84795865 204.5836382 72.3125 213.25 C85.56433683 222.38302268 99.53109293 224.78127244 115.5 222.5 C129.21242626 219.65402474 140.14553227 213.16279646 148.375 201.625 C156.56373746 188.37919521 158.27000118 171.62314072 154.8125 156.5625 C151.02242217 143.76007119 143.8379128 133.28620022 132.296875 126.2421875 C111.2562514 114.86307474 84.34211004 116.8918476 67 134 Z " fill="#FEFEFE" transform="translate(400,33)"/>
<path d="M0 0 C19.14 0 38.28 0 58 0 C58.01458252 4.57609131 58.02916504 9.15218262 58.04418945 13.86694336 C58.09465221 29.03020034 58.16112036 44.19335648 58.23571491 59.35651302 C58.28052984 68.54487391 58.3199768 77.73319726 58.34643555 86.92163086 C58.3695322 94.93763265 58.40305846 102.95351425 58.44870156 110.96942049 C58.47247778 115.20710359 58.49130804 119.44466882 58.49761391 123.68241692 C58.50373633 127.6855314 58.52398791 131.68834491 58.55427551 135.69134712 C58.56294279 137.1467745 58.56680238 138.6022414 58.56500816 140.05769348 C58.55385153 153.30483595 59.19036616 168.28001795 66 180 C66.42023438 180.75539062 66.84046875 181.51078125 67.2734375 182.2890625 C73.14616856 191.99042486 81.20984105 196.98802311 92 200 C104.72683471 202.82818549 119.86668173 201.71955525 131.375 195.375 C143.90975599 186.97733096 148.41945397 175.18881077 151.38053322 160.88087082 C152.43656068 154.26500977 152.4403787 147.67701935 152.43237305 140.99853516 C152.44141492 139.44968395 152.45174797 137.90083984 152.46325684 136.352005 C152.49056866 132.19385622 152.50007576 128.03584412 152.50611091 123.87761736 C152.51556264 119.51474235 152.54177089 115.15196679 152.56611633 110.78915405 C152.60959952 102.54834467 152.63825767 94.30755479 152.66143972 86.06666601 C152.6885895 76.67589385 152.73249452 67.28522265 152.77772844 57.89452291 C152.87031403 38.59638892 152.93990252 19.29826439 153 0 C172.14 0 191.28 0 211 0 C211.0679464 20.79403601 211.12311462 41.58798093 211.15543652 62.38210011 C211.17084877 72.03903515 211.19182922 81.69589588 211.22631836 91.3527832 C211.25639473 99.77818265 211.2756159 108.20352822 211.28226548 116.62897986 C211.28614713 121.08251764 211.29514907 125.53590142 211.31719017 129.98938942 C211.49632079 167.68132324 208.35934634 201.35361085 181.375 230.125 C159.5517423 251.10500972 129.59455643 257.7023723 100.0859375 257.1875 C72.70772142 256.37176172 47.61793883 247.28486687 28 228 C27.31292969 227.32582031 26.62585938 226.65164063 25.91796875 225.95703125 C4.47089435 203.41010688 -0.19002772 172.09503814 -0.11352539 142.24731445 C-0.11324275 140.6890615 -0.11340275 139.13080842 -0.1139679 137.57255554 C-0.11425288 133.37498182 -0.10840478 129.17743711 -0.10139394 124.97987008 C-0.09511033 120.58099788 -0.09455266 116.1821249 -0.09336853 111.7832489 C-0.09026991 103.46793975 -0.08207645 95.15264386 -0.07201904 86.83734053 C-0.06081212 77.36447427 -0.05533595 67.89160735 -0.05032361 58.4187361 C-0.0398925 38.94581503 -0.02156542 19.47291214 0 0 Z " fill="#FEFEFE" transform="translate(135,47)"/>
<path d="M0 0 C1.74503514 1.502599 3.47543111 3.02244431 5.1875 4.5625 C6.24904297 5.50029297 6.24904297 5.50029297 7.33203125 6.45703125 C27.10207097 24.97925781 35.48866176 52.23050732 37.1875 78.5625 C37.1875 83.8425 37.1875 89.1225 37.1875 94.5625 C-12.6425 94.5625 -62.4725 94.5625 -113.8125 94.5625 C-108.91925235 108.26359342 -104.18773765 119.93322243 -91.10546875 127.03125 C-77.57545879 133.39831351 -62.23346435 135.13345126 -47.6875 130.9375 C-37.48950088 127.30350969 -37.48950088 127.30350969 -29.25398254 120.64923096 C-26.46135982 117.29380751 -24.25857033 114.91793636 -19.93424988 113.8550415 C-16.52367624 113.63910159 -13.19660298 113.66210843 -9.78125 113.78125 C-7.9337616 113.79822937 -7.9337616 113.79822937 -6.0489502 113.81555176 C-2.13518315 113.8601492 1.77485014 113.96049781 5.6875 114.0625 C8.34890472 114.10718052 11.01027438 114.13914504 13.671875 114.171875 C20.17834601 114.25983105 26.68265624 114.39350818 33.1875 114.5625 C25.51874595 138.08864339 6.85199697 155.98826524 -14.625 167.3125 C-43.43288404 181.06388774 -76.92522606 182.44514085 -107.03515625 172 C-128.7381203 163.98042899 -145.30095776 149.41641495 -156.8125 129.5625 C-157.30492187 128.73234375 -157.79734375 127.9021875 -158.3046875 127.046875 C-171.35164851 103.22198968 -172.13805626 72.20194689 -164.8125 46.5625 C-157.14108519 21.6505898 -140.28672091 2.50665107 -117.53125 -9.62109375 C-81.60804089 -27.72662142 -31.83448617 -25.51149857 0 0 Z M-103.54296875 39.62890625 C-107.75576527 45.07436268 -112.8125 52.56443464 -112.8125 59.5625 C-81.1325 59.5625 -49.4525 59.5625 -16.8125 59.5625 C-21.58028743 45.25913772 -27.49227288 35.80662352 -41.0390625 28.84765625 C-61.98433084 19.14203191 -87.41875063 22.51483305 -103.54296875 39.62890625 Z " fill="#FEFEFE" transform="translate(1528.8125,125.4375)"/>
<path d="M0 0 C1.83715576 0.00737183 1.83715576 0.00737183 3.71142578 0.01489258 C29.28474179 0.34301448 52.48164902 7.48083836 71.48828125 25.29296875 C93.38275056 47.95268164 91.70302121 81.10045162 91.60546875 110.3671875 C91.60427287 112.77572607 91.60382465 115.18426511 91.6040802 117.59280396 C91.60253301 122.58273331 91.59437014 127.57258911 91.58081055 132.5625 C91.56361869 138.97053375 91.5600029 145.37848876 91.56075573 151.78654289 C91.56048494 156.7328263 91.55502185 161.67909236 91.54775429 166.62537003 C91.54456868 168.99138381 91.54260046 171.35739956 91.54186058 173.72341537 C91.53970736 177.00168027 91.53099146 180.27985893 91.52026367 183.55810547 C91.52071686 184.53760666 91.52117004 185.51710785 91.52163696 186.52629089 C91.51737198 187.41156967 91.51310699 188.29684845 91.50871277 189.20895386 C91.50703692 189.98196272 91.50536108 190.75497158 91.50363445 191.55140495 C91.375 193.3125 91.375 193.3125 90.375 194.3125 C87.34522196 194.40121273 84.33832978 194.4276935 81.30859375 194.41015625 C80.39997086 194.4087413 79.49134796 194.40732635 78.55519104 194.40586853 C75.64092779 194.40025193 72.72674019 194.38769665 69.8125 194.375 C67.84179798 194.36998714 65.87109476 194.36542386 63.90039062 194.36132812 C59.05856441 194.35027711 54.21679505 194.33300138 49.375 194.3125 C48.53496552 191.5643872 47.70277849 188.81430419 46.875 186.0625 C46.63652344 185.28519531 46.39804688 184.50789062 46.15234375 183.70703125 C45.92675781 182.95292969 45.70117188 182.19882812 45.46875 181.421875 C45.15454102 180.38498535 45.15454102 180.38498535 44.83398438 179.32714844 C44.375 177.3125 44.375 177.3125 44.375 173.3125 C43.24578125 174.25609375 43.24578125 174.25609375 42.09375 175.21875 C22.78558861 190.93806823 1.42217251 197.73530534 -23.4375 197.625 C-24.4287085 197.62176727 -24.4287085 197.62176727 -25.43994141 197.61846924 C-46.55506296 197.50793559 -64.99752667 192.99197519 -80.87109375 178.22265625 C-91.84442134 166.75148393 -96.12917343 152.24370769 -95.97875977 136.67675781 C-95.48982838 121.16319123 -90.01084738 107.13772837 -78.59765625 96.40625 C-66.07771214 86.08239012 -50.80094929 81.11821386 -34.69189453 81.19897461 C-33.9204863 81.19882858 -33.14907806 81.19868256 -32.35429382 81.1985321 C-29.82210409 81.19922492 -27.28998928 81.20698759 -24.7578125 81.21484375 C-22.9951888 81.21671017 -21.23256459 81.21813302 -19.46994019 81.21913147 C-14.84381666 81.22293897 -10.21772482 81.23275411 -5.59161377 81.24383545 C-0.86576771 81.25408762 3.86008351 81.25863723 8.5859375 81.26367188 C17.84897221 81.27437802 27.11198346 81.29143314 36.375 81.3125 C36.23497918 79.07913973 36.08936522 76.84612967 35.94140625 74.61328125 C35.86092041 73.36973877 35.78043457 72.12619629 35.69750977 70.8449707 C34.95845156 62.75001747 32.43883927 57.25764034 26.8203125 51.328125 C20.84592118 46.40354685 13.06760396 43.73986689 5.375 43.3125 C4.64152344 43.26222656 3.90804688 43.21195313 3.15234375 43.16015625 C-7.62849832 42.73302305 -17.29166869 45.34441659 -25.625 52.3125 C-29.41855127 56.20588157 -30.33557349 58.97050481 -32.625 64.3125 C-50.445 64.3125 -68.265 64.3125 -86.625 64.3125 C-83.13236927 48.01355659 -83.13236927 48.01355659 -79.9375 42.0625 C-79.58864746 41.393396 -79.23979492 40.72429199 -78.88037109 40.03491211 C-75.76064505 34.23042856 -72.15215496 29.11786001 -67.625 24.3125 C-66.92246094 23.55710938 -66.21992187 22.80171875 -65.49609375 22.0234375 C-54.60909815 11.30223371 -40.45614826 5.21261308 -25.625 2.3125 C-24.75391602 2.13807373 -23.88283203 1.96364746 -22.98535156 1.78393555 C-15.28859416 0.35397509 -7.81916492 -0.03733719 0 0 Z M-37.625 125.3125 C-41.48587759 130.84014669 -41.37405463 135.762627 -40.625 142.3125 C-39.02725859 148.10697551 -34.87917774 151.0532234 -29.9140625 154.09375 C-18.55498495 160.14158651 -5.14319884 158.71581435 6.80859375 155.34375 C18.05257545 151.42358677 26.85923118 145.01653887 32.375 134.3125 C35.19931649 128.05487379 36.46100847 123.20633199 36.375 116.3125 C28.8551915 116.21933554 21.33544374 116.14850156 13.81518745 116.10525131 C10.32222053 116.08448073 6.82965186 116.05635994 3.33691406 116.01074219 C-0.68948939 115.95849054 -4.71548227 115.93946802 -8.7421875 115.921875 C-9.98112762 115.90122986 -11.22006775 115.88058472 -12.49655151 115.85931396 C-22.3581373 115.85679003 -31.13504462 117.2492221 -37.625 125.3125 Z " fill="#FEFEFE" transform="translate(1077.625,104.6875)"/>
<path d="M0 0 C1.13300537 0.00563965 2.26601074 0.0112793 3.43334961 0.01708984 C31.35341817 0.41671103 56.88462362 9.66533838 77.5 29 C89.57397882 41.7015245 101.57190649 60.24586056 101.375 78.3125 C94.11681102 78.59227779 86.86001829 78.78438129 79.59765625 78.91674805 C77.12967989 78.97194086 74.66206123 79.04691768 72.1953125 79.14233398 C50.50102327 79.96024368 50.50102327 79.96024368 46.0324707 75.94677734 C43.97771562 73.11840944 42.66181954 70.54808801 41.375 67.3125 C34.55430438 57.4556114 23.83320691 52.03290009 12.375 49.3125 C-0.56981119 46.96829984 -14.81920849 48.60181343 -25.9921875 55.84765625 C-36.99439506 63.97891739 -43.57013562 73.90877789 -46.625 87.3125 C-47.64324964 99.35484912 -48.12503041 112.29446523 -42.625 123.3125 C-42.25117187 124.11300781 -41.87734375 124.91351563 -41.4921875 125.73828125 C-35.80779982 136.93765433 -27.47095667 144.00844731 -15.67578125 148.4140625 C-1.75800446 152.39057015 13.5747313 151.12917707 26.5859375 144.734375 C36.9566552 138.4267056 43.39319267 130.58332772 48.63459778 119.69612122 C50.375 117.3125 50.375 117.3125 52.74784851 116.71122742 C53.68272598 116.72233047 54.61760345 116.73343353 55.58081055 116.74487305 C56.64168381 116.7452507 57.70255707 116.74562836 58.795578 116.74601746 C59.93940445 116.77182388 61.0832309 116.79763031 62.26171875 116.82421875 C63.43386429 116.83129349 64.60600983 116.83836823 65.81367493 116.84565735 C69.56392772 116.87368521 73.31269713 116.93644402 77.0625 117 C79.60219201 117.0250718 82.14190738 117.0478869 84.68164062 117.06835938 C90.91326804 117.12353961 97.14402807 117.20725113 103.375 117.3125 C103.23811465 118.72980098 103.09525253 120.14652536 102.94995117 121.56298828 C102.87105148 122.35198517 102.79215179 123.14098206 102.71086121 123.95388794 C102.19668822 127.5647087 101.02280877 130.80848912 99.6875 134.1875 C99.4191333 134.87875977 99.1507666 135.57001953 98.87426758 136.28222656 C88.63220539 162.04156683 69.54033147 180.39627529 44.375 191.3125 C36.30077313 194.52895112 27.98446615 197.04899473 19.375 198.3125 C18.66085937 198.42335938 17.94671875 198.53421875 17.2109375 198.6484375 C-11.7522517 202.33104231 -42.79964842 196.67516311 -66.23046875 178.60546875 C-87.49791711 161.47168497 -99.21648536 138.26925248 -102.625 111.3125 C-102.90161518 107.2032097 -102.95997675 103.11774021 -102.9375 99 C-102.93186035 97.90623047 -102.9262207 96.81246094 -102.92041016 95.68554688 C-102.79362768 87.20492883 -102.01708057 79.49070755 -99.625 71.3125 C-99.32698486 70.2930127 -99.32698486 70.2930127 -99.02294922 69.25292969 C-91.55892745 44.43994947 -75.52039389 25.41827332 -53.30859375 12.36328125 C-36.97356509 3.63738529 -18.42713461 -0.09719685 0 0 Z " fill="#FEFEFE" transform="translate(849.625,104.6875)"/>
<path d="M0 0 C14.19407038 12.96569465 24.93180468 30.2035898 28.51708984 49.28051758 C28.51708984 50.60051758 28.51708984 51.92051758 28.51708984 53.28051758 C21.09815247 53.55998724 13.68057511 53.75227216 6.25756836 53.88476562 C3.73426604 53.94000387 1.21131458 54.01501424 -1.31079102 54.11035156 C-4.94326187 54.24419827 -8.57107562 54.30624131 -12.20556641 54.35473633 C-13.32874771 54.41151047 -14.45192902 54.46828461 -15.60914612 54.52677917 C-18.90735806 54.52936296 -21.37788562 54.40686916 -24.48291016 53.28051758 C-26.85122157 50.68860446 -28.39884275 48.16203158 -29.99266052 45.03962708 C-31.50903249 42.23215361 -33.21841377 40.49037111 -35.48291016 38.28051758 C-35.48291016 37.62051758 -35.48291016 36.96051758 -35.48291016 36.28051758 C-35.99853516 36.05364258 -36.51416016 35.82676758 -37.04541016 35.59301758 C-39.48291016 34.28051758 -39.48291016 34.28051758 -42.60791016 31.90551758 C-53.35349931 24.25267152 -67.36422837 22.21107757 -80.29541016 23.84301758 C-92.85918015 26.32126434 -103.59871201 31.68942983 -111.29541016 42.09301758 C-119.71449021 54.97498961 -122.67121258 70.2611514 -119.76025391 85.41723633 C-118.12107881 92.91910975 -116.05480228 100.01184075 -111.48291016 106.28051758 C-110.87962891 107.11067383 -110.27634766 107.94083008 -109.65478516 108.79614258 C-102.81955556 117.25157475 -92.71281749 123.26303302 -81.87353516 125.06958008 C-64.82178711 126.57414608 -50.12007902 123.6283865 -36.73291016 112.59301758 C-30.60589449 106.87300296 -26.57494628 100.01060788 -23.48291016 92.28051758 C-5.66291016 92.28051758 12.15708984 92.28051758 30.51708984 92.28051758 C25.86444234 117.87007887 12.76363169 140.24078605 -8.52709961 155.43603516 C-34.37069871 173.04401996 -66.29226653 177.98776734 -96.74853516 172.31567383 C-115.08400401 168.5165345 -131.62085956 160.96929116 -145.48291016 148.28051758 C-146.28470703 147.54833008 -147.08650391 146.81614258 -147.91259766 146.06176758 C-160.79028754 133.74774762 -169.22320534 117.49964181 -173.48291016 100.28051758 C-173.69560547 99.44004883 -173.90830078 98.59958008 -174.12744141 97.73364258 C-180.0087789 70.48485592 -175.23295877 41.58883364 -160.42041016 17.99536133 C-144.83430892 -3.750688 -124.47733205 -16.48321973 -98.48291016 -22.71948242 C-97.54060547 -22.94635742 -96.59830078 -23.17323242 -95.62744141 -23.40698242 C-62.74321616 -29.79743915 -25.47228658 -22.28921767 0 0 Z " fill="#FEFEFE" transform="translate(1768.48291015625,129.719482421875)"/>
<path d="M0 0 C14.19 0 28.38 0 43 0 C43 16.17 43 32.34 43 49 C46.66996094 48.98839844 50.33992188 48.97679687 54.12109375 48.96484375 C57.65893467 48.95705448 61.19677464 48.95097698 64.73461914 48.94506836 C67.20142033 48.94002644 69.66821852 48.93319309 72.13500977 48.92456055 C75.67204529 48.91248875 79.20904145 48.90677044 82.74609375 48.90234375 C83.85649521 48.89718246 84.96689667 48.89202118 86.11094666 48.88670349 C87.64242088 48.88659019 87.64242088 48.88659019 89.20483398 48.88647461 C90.10862289 48.884254 91.0124118 48.88203339 91.94358826 48.87974548 C94 49 94 49 95 50 C95.09785341 51.34544327 95.12797985 52.69592563 95.12939453 54.04492188 C95.13254669 54.90251099 95.13569885 55.7601001 95.13894653 56.64367676 C95.13591019 58.04208801 95.13591019 58.04208801 95.1328125 59.46875 C95.13376923 60.41939331 95.13472595 61.37003662 95.13571167 62.3494873 C95.13639357 64.36368882 95.13453862 66.37789252 95.13037109 68.39208984 C95.12502298 71.48670355 95.13031577 74.5811721 95.13671875 77.67578125 C95.13605797 79.62760449 95.13477681 81.57942764 95.1328125 83.53125 C95.13483673 84.46352417 95.13686096 85.39579834 95.13894653 86.35632324 C95.13421829 87.64270691 95.13421829 87.64270691 95.12939453 88.95507812 C95.12859894 89.71373169 95.12780334 90.47238525 95.12698364 91.25402832 C95 93 95 93 94 94 C92.40389018 94.09333705 90.80366572 94.11745372 89.20483398 94.11352539 C88.18385117 94.11344986 87.16286835 94.11337433 86.11094666 94.11329651 C85.0005452 94.10813522 83.89014374 94.10297394 82.74609375 94.09765625 C81.61551041 94.0962413 80.48492706 94.09482635 79.32008362 94.09336853 C75.69252935 94.08775019 72.06503576 94.07519458 68.4375 94.0625 C65.98502693 94.05748736 63.5325529 94.05292405 61.08007812 94.04882812 C55.05336455 94.0377748 49.02668661 94.02101884 43 94 C43.03820541 103.328294 43.09778076 112.65614494 43.18390274 121.98412037 C43.22324633 126.31649501 43.25549858 130.6486704 43.27099609 134.98120117 C43.28624986 139.17008667 43.32084745 143.35842387 43.36830902 147.54706383 C43.38303362 149.13721613 43.39103584 150.72744676 43.39188385 152.31766701 C43.40299276 162.71329321 43.94559498 172.60545122 50.125 181.4375 C57.28376625 187.81813948 66.42050427 189.01808959 75.7109375 189.31640625 C76.83290527 189.35451416 77.95487305 189.39262207 79.11083984 189.43188477 C80.5180127 189.47498779 81.92518555 189.51809082 83.375 189.5625 C87.87125 189.706875 92.3675 189.85125 97 190 C97 205.84 97 221.68 97 238 C86.3884375 238.0928125 86.3884375 238.0928125 75.5625 238.1875 C72.27067749 238.22846802 72.27067749 238.22846802 68.91235352 238.27026367 C45.27613215 238.4411235 23.57804253 235.03683589 5.43359375 218.6875 C-10.453844 202.34306319 -12.64457925 181.13941724 -12.390625 159.52734375 C-12.38314134 157.62350568 -12.3774585 155.71965977 -12.37347412 153.81581116 C-12.35838474 148.86577129 -12.31925235 143.91621984 -12.2746582 138.96636963 C-12.22604314 132.99477986 -12.20809176 127.02302448 -12.18484497 121.05129242 C-12.14638685 112.03385788 -12.06961819 103.01748962 -12 94 C-24.21 94 -36.42 94 -49 94 C-49 79.15 -49 64.3 -49 49 C-36.625 48.6875 -36.625 48.6875 -32.78759766 48.61206055 C-24.60297591 48.34913421 -16.38793297 48.02751457 -10.0625 42.375 C-5.12255168 34.29144821 -4.11929018 25.38251896 -2.875 16.125 C-2.54136703 13.71061793 -2.20553538 11.29653835 -1.8671875 8.8828125 C-1.72394043 7.82465332 -1.58069336 6.76649414 -1.43310547 5.67626953 C-1 3 -1 3 0 0 Z " fill="#FEFEFE" transform="translate(1242,61)"/>
<path d="M0 0 C18.48 0 36.96 0 56 0 C56 62.37 56 124.74 56 189 C37.52 189 19.04 189 0 189 C0 126.63 0 64.26 0 0 Z " fill="#FEFEFE" transform="translate(651,110)"/>
<path d="M0 0 C6.65321142 5.86298324 10.65062351 13.97255862 11.35546875 22.7265625 C11.80522504 34.07689088 10.33545795 42.11516944 2.9765625 51.109375 C-3.53293049 57.95241226 -11.53269903 61.27053601 -20.87109375 62.03515625 C-32.04478956 62.29822963 -41.42525195 60.0719086 -50.05859375 52.703125 C-57.0416163 45.70576359 -59.98264267 36.51910563 -60.3359375 26.734375 C-59.95094757 16.59630682 -56.10741861 7.96342036 -48.95703125 0.78515625 C-35.31665781 -10.85430373 -14.28368786 -10.19542384 0 0 Z " fill="#FEFEFE" transform="translate(702.9609375,22.203125)"/>
</svg>
